<?xml version="1.0" standalone="no"?>
<!DOCTYPE svg PUBLIC "-//W3C//DTD SVG 20010904//EN"
 "http://www.w3.org/TR/2001/REC-SVG-20010904/DTD/svg10.dtd">
<svg version="1.0" xmlns="http://www.w3.org/2000/svg"
 width="1024.000000pt" height="1024.000000pt" viewBox="0 0 1024.000000 1024.000000"
 preserveAspectRatio="xMidYMid meet">

<g transform="translate(0.000000,1024.000000) scale(0.100000,-0.100000)"
fill="#000000" stroke="none">
<path d="M4985 9328 c-206 -19 -469 -107 -612 -204 -86 -58 -181 -136 -213
-176 -211 -257 -267 -471 -241 -926 10 -181 9 -198 -7 -220 -44 -62 -54 -82
-77 -155 -50 -155 -18 -332 81 -452 39 -49 143 -119 194 -132 27 -7 35 -16 45
-48 36 -122 161 -333 264 -444 l41 -44 0 -103 0 -103 -42 -5 c-57 -7 -337 -45
-413 -57 -33 -4 -92 -17 -131 -28 -39 -11 -84 -22 -100 -25 -32 -6 -226 -79
-309 -116 -115 -52 -213 -117 -297 -198 -121 -116 -166 -178 -248 -334 -34
-65 -110 -285 -110 -318 0 -12 -7 -49 -16 -83 -8 -33 -26 -128 -40 -211 -35
-218 -82 -494 -88 -514 -3 -9 -19 -98 -37 -197 -35 -204 -34 -254 6 -362 61
-162 198 -296 408 -399 68 -34 77 -41 77 -66 l0 -28 -154 0 c-151 0 -155 -1
-185 -26 -39 -32 -47 -77 -31 -168 30 -172 166 -327 331 -376 66 -20 94 -20
2060 -17 1375 2 2007 6 2037 14 50 12 137 68 191 122 42 42 104 148 116 196
32 139 25 203 -28 235 -28 18 -51 20 -184 20 -153 0 -153 0 -150 23 3 17 26
34 99 72 122 63 173 100 259 188 83 83 142 196 161 304 12 75 7 115 -73 533
-49 260 -77 411 -94 505 -15 89 -57 293 -70 337 -31 110 -126 302 -195 394
-113 151 -209 229 -410 335 -129 68 -354 141 -530 173 -178 32 -377 65 -432
71 l-58 6 0 96 0 95 63 68 c35 38 84 99 109 137 44 66 126 235 134 278 8 41
27 63 59 69 47 9 145 76 184 124 119 151 141 346 57 515 -19 40 -45 83 -56 98
l-21 25 23 140 c30 184 34 523 6 592 -10 23 -16 42 -13 42 8 0 -34 79 -66 127
-89 130 -268 243 -410 260 -44 5 -53 12 -99 63 -96 111 -261 213 -404 250 -88
23 -212 42 -251 38 -17 -1 -66 -6 -110 -10z m703 -1152 c21 -21 69 -66 107
-99 39 -33 79 -74 89 -91 27 -44 53 -172 61 -305 6 -100 10 -117 30 -137 18
-18 31 -22 61 -18 31 4 52 17 100 65 l61 60 16 -34 c26 -54 34 -107 25 -165
-19 -121 -91 -196 -193 -201 -70 -3 -89 -26 -126 -147 -33 -110 -74 -203 -124
-279 -48 -73 -159 -190 -219 -229 -276 -183 -582 -193 -845 -28 -195 122 -322
292 -396 528 -40 128 -61 154 -122 154 -107 0 -196 97 -209 229 -6 50 -3 67
19 115 l26 56 59 -60 c53 -55 62 -60 100 -60 66 0 79 20 87 136 7 111 20 204
38 282 12 52 13 53 42 48 163 -31 232 -31 414 0 86 15 132 29 346 109 83 31
356 164 405 198 l34 24 39 -56 c22 -31 55 -73 75 -95z m-57 -1874 c1 -81 -2
-99 -25 -145 -44 -89 -135 -168 -246 -211 -73 -29 -88 -31 -245 -31 -149 0
-151 0 -219 33 -67 32 -142 85 -178 127 -10 11 -31 44 -48 72 -28 49 -30 60
-30 148 0 52 2 95 4 95 3 0 40 -17 83 -39 105 -52 278 -91 399 -91 144 0 356
55 469 122 16 9 30 16 32 14 1 -1 3 -44 4 -94z m1245 -887 c17 -9 40 -33 50
-53 18 -36 19 -73 16 -1009 l-3 -973 -1814 0 -1815 0 0 893 c0 490 -3 936 -7
989 l-6 98 37 34 c33 32 43 35 104 38 37 2 819 2 1737 1 1521 -2 1673 -4 1701
-18z"/>
<path d="M5221 5063 c-28 -27 -77 -152 -141 -358 -10 -33 -37 -114 -59 -180
-23 -66 -44 -130 -47 -142 -2 -12 -9 -35 -15 -50 -41 -102 -161 -465 -166
-499 -4 -34 0 -46 20 -70 31 -36 95 -40 127 -8 20 19 63 127 101 249 10 33 52
159 94 280 42 121 80 234 84 250 5 17 16 48 25 70 9 22 21 56 26 75 4 19 29
94 54 167 25 73 46 144 46 158 0 16 -12 38 -29 56 -38 38 -80 39 -120 2z"/>
<path d="M5713 4983 c-35 -7 -63 -50 -63 -97 0 -40 3 -44 227 -263 l228 -222
-110 -108 c-60 -60 -160 -155 -222 -213 -96 -90 -113 -111 -119 -144 -8 -47 8
-83 48 -105 56 -32 78 -15 363 268 255 255 265 266 265 303 0 47 -4 52 -314
352 -228 221 -253 239 -303 229z"/>
<path d="M4144 4718 c-265 -262 -291 -295 -278 -345 3 -10 49 -61 102 -113
456 -449 447 -440 481 -440 49 0 101 55 101 106 0 34 -8 44 -102 132 -120 112
-348 342 -348 351 0 8 243 248 340 336 95 86 113 112 107 158 -8 57 -31 77
-89 77 l-49 0 -265 -262z"/>
<path d="M8338 2474 c-87 -22 -164 -88 -209 -180 -21 -44 -24 -62 -24 -174 0
-104 3 -131 19 -160 46 -85 84 -124 161 -167 43 -24 61 -28 130 -28 69 0 87 4
134 30 106 58 156 143 168 283 l6 72 -157 0 -156 0 0 -65 0 -65 80 0 81 0 -16
-29 c-22 -44 -75 -80 -126 -87 -131 -17 -233 173 -168 316 36 79 88 120 154
120 48 0 113 -34 133 -71 16 -28 20 -29 90 -29 80 0 85 5 56 63 -68 134 -218
206 -356 171z"/>
<path d="M2809 2448 c-69 -35 -122 -91 -157 -167 -22 -48 -26 -70 -26 -156 0
-92 2 -105 31 -165 38 -77 71 -114 144 -160 50 -33 58 -35 144 -35 86 0 94 2
149 35 240 144 227 530 -22 654 -76 38 -180 36 -263 -6z m199 -122 c75 -39
106 -110 101 -228 -4 -61 -9 -82 -32 -116 -55 -85 -152 -104 -225 -45 -52 43
-76 96 -80 180 -4 63 -1 77 24 123 46 85 140 123 212 86z"/>
<path d="M3555 2461 c-134 -60 -229 -231 -210 -378 15 -121 85 -229 182 -280
124 -66 240 -52 340 41 69 64 100 131 109 236 l7 70 -146 0 c-80 0 -152 -3
-161 -6 -12 -5 -16 -21 -16 -65 l0 -59 80 0 80 0 -10 -25 c-24 -64 -108 -105
-175 -86 -69 20 -109 65 -130 149 -34 131 29 257 139 282 26 6 48 4 71 -6 34
-14 95 -68 95 -85 0 -5 34 -9 75 -9 86 0 86 1 51 75 -29 61 -63 94 -140 134
-50 27 -68 31 -130 30 -45 0 -85 -7 -111 -18z"/>
<path d="M1440 2125 l0 -345 75 0 75 0 0 115 0 115 74 0 c61 0 85 5 138 30 67
31 95 60 121 128 19 47 16 99 -10 167 -20 54 -48 83 -108 111 -46 22 -63 24
-207 24 l-158 0 0 -345z m294 201 c61 -26 72 -124 19 -166 -20 -16 -41 -20
-94 -20 l-69 0 0 100 0 100 55 0 c31 0 71 -6 89 -14z"/>
<path d="M2040 2468 c-1 -2 -2 -156 -3 -343 l-2 -340 73 -3 72 -3 0 121 0 120
38 0 c31 0 40 -6 60 -35 12 -19 22 -37 22 -39 0 -2 22 -40 49 -83 l48 -78 82
-3 c44 -2 81 0 81 3 0 3 -28 49 -62 103 -96 148 -96 147 -67 171 13 11 27 20
31 21 4 0 20 19 35 43 24 36 28 52 28 119 0 69 -3 80 -30 119 -35 50 -82 84
-134 99 -30 8 -320 15 -321 8z m298 -144 c38 -27 55 -70 42 -110 -17 -51 -43
-64 -127 -64 l-73 0 0 95 0 95 68 0 c45 0 75 -5 90 -16z"/>
<path d="M4100 2468 c0 -2 -1 -156 -2 -343 l-2 -340 72 -3 72 -3 0 121 0 120
44 0 c33 0 46 -4 50 -17 4 -10 34 -64 68 -120 l60 -103 79 0 c43 0 79 3 79 8
0 4 -36 61 -79 127 -78 119 -79 120 -58 135 86 61 107 100 107 199 0 50 -6 76
-23 106 -27 47 -89 93 -143 105 -33 8 -324 15 -324 8z m295 -142 c63 -26 75
-97 26 -147 -27 -27 -35 -29 -105 -29 l-76 0 0 95 0 95 60 0 c33 0 76 -6 95
-14z"/>
<path d="M4922 2408 c-26 -76 -90 -257 -125 -353 -53 -146 -97 -269 -97 -272
0 -2 35 -3 77 -1 l77 3 12 41 c6 22 19 55 28 72 l17 32 108 0 c75 0 111 -4
118 -12 5 -7 20 -41 33 -75 l25 -63 72 0 c43 0 73 4 73 10 0 9 -17 57 -99 280
-15 41 -36 98 -45 125 -36 99 -74 201 -90 238 l-16 37 -74 0 -73 0 -21 -62z
m172 -348 c5 -13 -6 -15 -72 -15 l-79 0 18 43 c10 23 19 46 19 50 1 14 29 102
36 113 3 6 21 -31 39 -83 18 -51 36 -100 39 -108z"/>
<path d="M5430 2125 l0 -345 65 0 65 0 1 218 1 217 45 -95 c25 -52 53 -118 63
-145 10 -28 29 -73 42 -99 23 -46 27 -49 66 -50 39 -1 42 1 58 39 9 22 29 69
44 105 46 103 97 224 103 240 3 8 6 -85 6 -207 l1 -223 75 0 75 0 -2 343 -3
342 -89 0 -89 0 -58 -135 c-31 -74 -69 -161 -83 -194 -14 -32 -26 -64 -26 -72
0 -28 -15 -13 -34 34 -11 26 -29 70 -41 97 -13 28 -44 101 -70 163 l-47 112
-84 0 -84 0 0 -345z"/>
<path d="M6280 2125 l0 -345 70 0 70 0 2 211 3 210 29 -68 c16 -37 44 -102 61
-143 18 -41 41 -94 50 -117 17 -41 20 -43 60 -43 41 0 42 1 68 58 78 170 127
284 127 292 0 5 3 11 8 13 4 3 6 -89 4 -204 l-3 -209 75 0 76 0 0 345 0 345
-86 0 -85 0 -20 -47 c-22 -54 -70 -162 -105 -238 -12 -27 -26 -61 -30 -75 -8
-30 -34 -69 -34 -52 0 6 -14 42 -31 79 -17 38 -37 84 -45 103 -7 19 -30 78
-52 130 l-40 95 -86 3 -86 3 0 -346z"/>
<path d="M7140 2135 c0 -184 0 -338 0 -342 0 -5 29 -9 65 -11 l65 -3 0 346 0
345 -65 0 -65 0 0 -335z"/>
<path d="M7420 2125 l0 -345 70 0 70 0 0 222 0 221 146 -221 146 -222 69 0 69
0 0 345 0 345 -75 0 -75 0 0 -217 c-1 -168 -3 -213 -12 -198 -6 11 -15 22 -18
25 -7 4 -141 205 -233 346 l-29 44 -64 0 -64 0 0 -345z"/>
<path d="M4230 1175 l0 -345 163 0 c187 0 235 10 310 66 116 85 153 239 101
415 -11 37 -30 65 -77 112 -83 84 -128 97 -342 97 l-155 0 0 -345z m315 194
c115 -29 170 -180 110 -298 -39 -77 -72 -95 -182 -99 l-93 -4 0 206 0 206 61
0 c33 0 80 -5 104 -11z"/>
<path d="M5107 1513 c-3 -4 -12 -30 -20 -58 -9 -27 -32 -95 -52 -150 -21 -55
-51 -136 -67 -180 -16 -44 -41 -114 -55 -155 -21 -64 -34 -97 -51 -132 -2 -5
33 -8 76 -8 l80 0 23 68 24 67 121 3 121 3 27 -71 28 -70 78 0 79 0 -25 63
c-14 34 -38 98 -54 142 -15 44 -40 112 -55 150 -14 39 -35 95 -45 125 -11 30
-32 89 -49 130 l-29 75 -75 3 c-42 2 -77 -1 -80 -5z m152 -405 c1 -16 -9 -18
-75 -18 -57 0 -74 3 -71 13 3 6 20 56 38 111 l32 98 38 -93 c21 -52 38 -102
38 -111z"/>
<path d="M5430 1515 c0 -2 14 -26 30 -52 17 -26 30 -52 30 -59 0 -6 8 -22 19
-35 10 -13 41 -69 69 -124 28 -55 60 -112 70 -127 15 -24 18 -48 18 -158 l-1
-130 73 0 72 0 0 126 0 126 39 66 c77 134 191 349 191 361 0 8 -23 11 -82 9
l-83 -3 -65 -132 c-36 -73 -68 -132 -71 -133 -3 0 -34 61 -70 135 l-64 134
-87 1 c-49 0 -88 -2 -88 -5z"/>
</g>
</svg>
